<?xml version="1.0" encoding="UTF-8"?>
<svg width="1024px" height="1024px" viewBox="0 0 1024 1024" version="1.1" xmlns="http://www.w3.org/2000/svg" xmlns:xlink="http://www.w3.org/1999/xlink">
    <title>cloudplatform-o</title>
    <g id="cloudplatform-o" stroke="none" stroke-width="1" fill="none" fill-rule="evenodd">
        <g id="Group">
            <rect id="Rectangle" x="0" y="0" width="1024" height="1024"></rect>
            <path d="M856.26518,816.813948 C849.084189,816.813948 842.325609,818.081366 835.98944,820.616201 L759.955412,750.90823 L759.955412,660.499103 C852.88589,644.022673 923.428571,562.48547 923.428571,464.89431 C923.428571,371.527875 857.532414,290.835617 767.558815,270.979407 C729.541801,164.516323 626.473453,91.4285714 512,91.4285714 C397.526547,91.4285714 294.88061,164.516323 256.441185,270.979407 C166.467586,290.835617 100.571429,371.527875 100.571429,464.89431 C100.571429,564.597833 174.4934,647.402454 270.380757,661.344048 L270.380757,750.90823 L236.587856,782.171199 C230.251687,780.058836 223.493106,778.368946 216.734526,778.368946 C184.63127,778.368946 158.864183,804.139772 158.864183,836.247686 C158.864183,868.3556 184.63127,894.126426 216.734526,894.126426 C248.837782,894.126426 274.604869,868.3556 274.604869,836.247686 C274.604869,830.755543 273.760047,825.685872 272.492813,820.616201 L323.604576,773.721748 L323.604576,663.456411 L416.535054,663.456411 L416.535054,716.687953 C397.104136,725.982349 384.009387,745.838559 384.009387,768.652077 C384.009387,800.759991 409.776474,826.530817 441.87973,826.530817 C473.982986,826.530817 499.750073,800.759991 499.750073,768.652077 C499.750073,746.683504 487.500147,727.672239 469.336462,717.532898 L469.336462,663.456411 L560.154884,663.456411 L560.154884,774.989166 C541.568789,784.706034 528.896451,804.139772 528.896451,826.530817 C528.896451,858.638731 554.663538,884.409557 586.766794,884.409557 C618.87005,884.409557 644.637137,858.638731 644.637137,826.530817 C644.637137,804.139772 631.964799,784.706034 613.378703,774.989166 L613.378703,663.456411 L708.421238,663.456411 L708.421238,773.721748 L801.351716,859.483677 C800.084482,864.130875 799.23966,869.200545 799.23966,874.692689 C799.23966,906.800603 825.006747,932.571429 857.110003,932.571429 C889.213259,932.571429 914.980346,906.800603 914.980346,874.692689 C914.980346,842.584774 888.368436,816.813948 856.26518,816.813948 L856.26518,816.813948 Z M153.372837,464.89431 C153.372837,392.229031 207.86389,330.125565 280.096216,320.408696 L296.992666,318.296334 L301.63919,301.819904 C328.673511,208.875942 415.26782,144.237641 512,144.237641 C608.73218,144.237641 695.326489,208.875942 722.36081,301.819904 L727.007334,318.296334 L743.903784,320.408696 C816.13611,329.703092 870.627163,391.806558 870.627163,464.89431 C870.627163,545.164096 805.153417,610.647342 724.895277,610.647342 L298.682312,610.647342 C218.424171,610.647342 153.372837,545.164096 153.372837,464.89431 Z M499.750073,488.975246 L699.550601,488.975246 L699.550601,541.784315 L499.750073,541.784315 L499.750073,488.975246 Z M387.811088,488.975246 L440.612496,488.975246 L440.612496,541.784315 L387.811088,541.784315 L387.811088,488.975246 Z" id="Shape" fill="#000000"></path>
        </g>
    </g>
</svg>