<?xml version="1.0" standalone="no"?><!DOCTYPE svg PUBLIC "-//W3C//DTD SVG 1.1//EN" "http://www.w3.org/Graphics/SVG/1.1/DTD/svg11.dtd"><svg t="1651142542584" class="icon" viewBox="0 0 1024 1024" version="1.1" xmlns="http://www.w3.org/2000/svg" p-id="3228" xmlns:xlink="http://www.w3.org/1999/xlink" width="200" height="200"><defs><style type="text/css">@font-face { font-family: feedback-iconfont; src: url("//at.alicdn.com/t/font_1031158_u69w8yhxdu.woff2?t=1630033759944") format("woff2"), url("//at.alicdn.com/t/font_1031158_u69w8yhxdu.woff?t=1630033759944") format("woff"), url("//at.alicdn.com/t/font_1031158_u69w8yhxdu.ttf?t=1630033759944") format("truetype"); }
</style></defs><path d="M819.895 167.2C898.377 167.2 962 230.823 962 309.305v495.79c0 78.482-63.623 142.105-142.105 142.105h-615.79C125.623 947.2 62 883.577 62 805.095v-495.79C62 230.823 125.623 167.2 204.105 167.2h615.79z m0 66.316h-615.79c-41.359 0-74.98 33.129-75.775 74.298l-0.014 1.491v495.79c0 41.359 33.129 74.98 74.298 75.775l1.491 0.014h615.79c41.359 0 74.98-33.129 75.775-74.298l0.014-1.491v-495.79c0-41.359-33.129-74.98-74.298-75.775l-1.491-0.014z" fill="#515151" p-id="3229"></path><path d="M677.162 420.703l46.527 46.528a0.7 0.7 0 0 1 0 0.99L517.387 674.522l0.023 0.027a0.7 0.7 0 0 1-0.074 0.903l-46.527 46.527a0.7 0.7 0 0 1-0.99 0l-0.012-0.009a0.7 0.7 0 0 1-0.676-0.18l-46.528-46.528a0.7 0.7 0 0 1-0.18-0.678l-121.32-121.32a0.7 0.7 0 0 1 0-0.99l46.528-46.528a0.7 0.7 0 0 1 0.99 0L469.874 627l206.298-206.297a0.7 0.7 0 0 1 0.99 0z" fill="#515151" p-id="3230"></path><path d="M244.4 76m25 0l490 0q25 0 25 25l0 190q0 25-25 25l-490 0q-25 0-25-25l0-190q0-25 25-25Z" fill="#515151" p-id="3231"></path><path d="M665.979 76C731.38 76 784.4 129.019 784.4 194.421v3.158C784.4 262.98 731.381 316 665.979 316H362.82C297.42 316 244.4 262.981 244.4 197.579v-3.158C244.4 129.02 297.419 76 362.821 76H665.98z m0 66.316H362.82c-28.32 0-51.363 22.593-52.088 50.739l-0.017 1.366v3.158c0 28.32 22.593 51.363 50.739 52.088l1.366 0.017H665.98c28.32 0 51.363-22.593 52.088-50.739l0.017-1.366v-3.158c0-28.32-22.593-51.363-50.739-52.088l-1.366-0.017z" fill="#515151" p-id="3232"></path></svg>