<?xml version="1.0" standalone="no"?><!DOCTYPE svg PUBLIC "-//W3C//DTD SVG 1.1//EN" "http://www.w3.org/Graphics/SVG/1.1/DTD/svg11.dtd"><svg t="1651141833499" class="icon" viewBox="0 0 1024 1024" version="1.1" xmlns="http://www.w3.org/2000/svg" p-id="4231" xmlns:xlink="http://www.w3.org/1999/xlink" width="200" height="200"><defs><style type="text/css">@font-face { font-family: feedback-iconfont; src: url("//at.alicdn.com/t/font_1031158_u69w8yhxdu.woff2?t=1630033759944") format("woff2"), url("//at.alicdn.com/t/font_1031158_u69w8yhxdu.woff?t=1630033759944") format("woff"), url("//at.alicdn.com/t/font_1031158_u69w8yhxdu.ttf?t=1630033759944") format("truetype"); }
</style></defs><path d="M404.515498 155.484214l553.673122 0 0 55.113225L404.515498 210.597439 404.515498 155.484214zM404.515498 472.387817l553.673122 0 0 55.113225L404.515498 527.501042 404.515498 472.387817zM404.515498 812.203246 961.256492 812.203246l0 55.113225L404.515498 867.316471 404.515498 812.203246zM176.936293 525.024641l-75.298963-65.023946-36.709063 42.508139 116.01734 100.18884 14.94027-17.289782 161.341618-160.562882-39.615253-39.805588L176.936293 525.024641zM176.936293 221.1027l-75.298963-65.023946-36.709063 42.508139 116.01734 100.18884 14.94027-17.289782 161.341618-160.562882-39.615253-39.805588L176.936293 221.1027zM176.936293 863.738993l-75.298963-65.023946L64.928267 841.222163l116.01734 100.18884 14.94027-17.289782 161.341618-160.562882-39.615253-39.804565L176.936293 863.738993z" p-id="4232" fill="#ba0505"></path></svg>