<?xml version="1.0" standalone="no"?><!DOCTYPE svg PUBLIC "-//W3C//DTD SVG 1.1//EN" "http://www.w3.org/Graphics/SVG/1.1/DTD/svg11.dtd"><svg t="1651142132366" class="icon" viewBox="0 0 1024 1024" version="1.1" xmlns="http://www.w3.org/2000/svg" p-id="10711" xmlns:xlink="http://www.w3.org/1999/xlink" width="200" height="200"><defs><style type="text/css">@font-face { font-family: feedback-iconfont; src: url("//at.alicdn.com/t/font_1031158_u69w8yhxdu.woff2?t=1630033759944") format("woff2"), url("//at.alicdn.com/t/font_1031158_u69w8yhxdu.woff?t=1630033759944") format("woff"), url("//at.alicdn.com/t/font_1031158_u69w8yhxdu.ttf?t=1630033759944") format("truetype"); }
</style></defs><path d="M883.2 83.2H140.8c-51.2 0-92.8 41.6-92.8 89.6v582.4c0 48 41.6 89.6 92.8 89.6h256s6.4 6.4 16 19.2c3.2 3.2 6.4 6.4 9.6 12.8 0 0 6.4 9.6 9.6 12.8 28.8 44.8 51.2 67.2 86.4 67.2s60.8-22.4 89.6-67.2c22.4-35.2 28.8-44.8 28.8-44.8h249.6c51.2 0 92.8-41.6 92.8-89.6V172.8c-3.2-51.2-44.8-89.6-96-89.6z m48 672c0 25.6-19.2 44.8-44.8 44.8H633.6c-6.4 0-9.6 0-16 3.2-9.6 6.4-19.2 12.8-28.8 28.8-3.2 6.4-22.4 35.2-22.4 35.2-19.2 32-35.2 44.8-48 44.8-12.8 0-25.6-12.8-48-44.8-3.2-3.2-6.4-12.8-9.6-12.8-3.2-6.4-6.4-9.6-9.6-12.8-19.2-25.6-32-38.4-54.4-38.4h-256c-25.6 0-44.8-19.2-44.8-44.8V176c0-25.6 22.4-44.8 48-44.8h742.4c25.6 0 48 19.2 48 44.8v579.2z" fill="" p-id="10712"></path><path d="M220.8 483.2a1.6 1.6 0 1 0 102.4 0 1.6 1.6 0 1 0-102.4 0zM460.8 483.2a1.6 1.6 0 1 0 102.4 0 1.6 1.6 0 1 0-102.4 0zM697.6 483.2a1.6 1.6 0 1 0 102.4 0 1.6 1.6 0 1 0-102.4 0z" fill="" p-id="10713"></path></svg>