<?xml version="1.0" encoding="UTF-8"?>
<svg width="46px" height="46px" viewBox="0 0 46 46" version="1.1" xmlns="http://www.w3.org/2000/svg" xmlns:xlink="http://www.w3.org/1999/xlink">
    <!-- Generator: Sketch 58 (84663) - https://sketch.com -->
    <title>icon_Application market</title>
    <desc>Created with Sketch.</desc>
    <g id="市场应用" stroke="none" stroke-width="1" fill="none" fill-rule="evenodd">
        <g id="应用管理-导入应用" transform="translate(-1458.000000, -78.000000)">
            <g id="分组-copy-5备份-2" transform="translate(1458.000000, 78.000000)">
                <g id="编组-5">
                    <polygon id="矩形" fill="#EAF9F5" transform="translate(23.000000, 23.000000) scale(-1, 1) rotate(-360.000000) translate(-23.000000, -23.000000) " points="-8.6686977e-12 -5.32196509e-12 21.8238799 -6.51567689e-12 46 24.1944295 46 46"></polygon>
                    <path d="M7.56705279,32.4542665 L8.21759103,33.1048047 L13.2521913,28.0702044 L12.6016531,27.4196662 L11.2086527,28.8126665 C10.6076119,27.3913819 9.79443915,25.8993866 8.79034752,24.3296095 L7.94889045,24.8175132 C9.06611917,26.5569959 9.9146473,28.126773 10.4874038,29.5339155 L7.56705279,32.4542665 Z M5.16288973,28.2964786 L4.76690994,29.0601539 C5.86999652,29.5975551 6.95186989,30.212738 8.0266722,30.9198447 L8.50043374,30.1208141 C7.29835221,29.3712809 6.19526563,28.7631691 5.16288973,28.2964786 Z M6.0043468,26.4226456 L5.60836701,27.2004631 C6.69731145,27.8085749 7.77918482,28.4803263 8.839845,29.2298595 L9.32067761,28.4378999 C8.13273821,27.6317982 7.02258057,26.9600468 6.0043468,26.4226456 Z M4.18708238,24.5346705 L3.56482841,25.4114829 C3.85474219,25.4609804 4.1587981,25.5387621 4.45578295,25.6377571 L1.88898534,28.2045547 L4.02444782,30.3400172 C5.40330604,31.7471597 6.30133165,33.0270229 6.71145358,34.1725359 L7.77918482,34.1088963 C7.27713901,32.7300381 6.25183418,31.2521849 4.70327033,29.6611947 L3.21834609,28.1762704 L8.40143879,22.9931777 L7.75090055,22.3426395 L5.20531614,24.8882239 C4.84469168,24.7397315 4.50528043,24.6265944 4.18708238,24.5346705 Z M11.6470589,22.3072841 L13.2734045,20.6809386 L14.3552779,21.7628119 L12.7289323,23.3891575 L11.6470589,22.3072841 Z M13.3158309,24.0467668 L14.9775319,22.3850659 L16.9927862,24.4003202 L17.6716087,23.7214977 L15.6563544,21.7062434 L17.4099792,19.9526186 L18.4635683,21.0062077 C18.7393399,21.2819793 18.7605531,21.5436088 18.534279,21.769883 C18.2938627,22.0102993 18.0251621,22.2507156 17.7281772,22.505274 L18.5625632,22.9861067 L19.375736,22.1729339 C19.9131372,21.6355327 19.9202083,21.0910605 19.3898782,20.5607304 L14.0653641,15.2362163 L8.6418551,20.6597253 L12.1066783,24.1245486 C13.0259171,25.0720717 13.5774604,26.0620212 13.7613082,27.0943971 L14.7371156,27.0378285 C14.5956942,26.0195947 14.1219327,25.0225742 13.3158309,24.0467668 Z M16.7877252,19.3303646 L15.0341004,21.0839894 L13.952227,20.002116 L15.7058518,18.2484912 L16.7877252,19.3303646 Z M15.0906689,17.6333083 L13.3370441,19.3869331 L12.276384,18.326273 L14.0300088,16.5726482 L15.0906689,17.6333083 Z M11.5975614,19.0050955 L12.6582216,20.0657557 L11.031876,21.6921012 L9.97121585,20.6314411 L11.5975614,19.0050955 Z M15.6917097,14.6422466 L16.3351769,15.2857138 L19.1494619,12.4714288 L19.9202083,13.2421752 L17.7140351,15.4483484 L21.0727923,18.8071056 L21.7304016,18.1494963 L19.0151116,15.4342062 L20.5636754,13.8856424 L24.268915,17.5908819 L24.9477375,16.9120594 L21.2424979,13.2068199 L22.8759146,11.5734032 L24.7002501,13.3977387 C24.8558136,13.5533022 24.8558136,13.7230078 24.686108,13.8927135 L23.9790012,14.5291096 L24.7851029,14.9958 L25.4992808,14.2816222 C25.9659712,13.8149317 25.9730423,13.3411702 25.520494,12.8886218 L22.8971278,10.2652557 L20.5990308,12.5633527 L19.8282844,11.7926063 L22.6425694,8.97832132 L21.9991022,8.33485415 L19.163604,11.1703523 C18.7676242,10.9723624 18.3928576,10.7955857 18.0393042,10.6541644 L17.4311924,11.4885504 C17.7635326,11.5804743 18.117086,11.7077535 18.4777104,11.8562459 L15.6917097,14.6422466 Z M28.5115556,6.33374196 C28.9146065,7.18934117 29.0630989,8.07322464 28.9499619,8.99246346 L29.8904139,9.09852947 C30.0247642,7.97422969 29.7772768,6.83578777 29.1479518,5.69734586 L29.5792869,5.26601072 C30.1237591,6.12160993 30.4631704,6.89942738 30.5763074,7.60653417 C30.6823735,8.39142269 30.5833785,9.29651937 30.2934647,10.3076821 L31.2339168,10.4278902 C31.5450437,9.2682351 31.6157544,8.2358592 31.4460488,7.33076252 C31.2904853,6.52466079 30.8874344,5.62663518 30.2227541,4.62254355 L30.5833785,4.26191909 L31.4739009,5.220266 L31.7871029,5.56679859 C32.4223986,6.27715639 32.776083,6.72440162 32.8461202,6.90649845 C32.9733994,7.23176757 32.923902,7.50753922 32.6905567,7.75502659 C32.4359983,8.00958503 32.1672977,8.25000134 31.8773839,8.48334657 L32.7117699,8.95003705 C32.9451152,8.74497608 33.1784604,8.52577298 33.4118056,8.29242774 C33.9492068,7.72674232 34.0482017,7.14691476 33.6946484,6.53880293 L33.5690662,6.33938467 L33.393553,6.09114698 C32.9000708,5.42278535 31.9963442,4.39585343 30.6823735,3.00326902 L28.1085048,5.5771377 C28.3772054,4.37505618 28.5610531,3.18711678 28.6600481,2.02746166 L28.0802205,1.4476341 L24.9901639,4.53769074 L25.6053468,5.15287364 L27.6983829,3.05983756 C27.5286772,4.23363482 27.2741188,5.43571635 26.9347075,6.68022428 L27.5498904,7.29540718 L28.5115556,6.33374196 Z M23.8658641,8.75911822 L24.6578237,7.96715862 L22.9254121,6.23474701 L23.6042346,5.5559245 L25.3366462,7.28833611 L26.1639611,6.46102118 L26.8074283,7.10448835 L25.9801134,7.93180329 L28.2640683,10.2157582 C28.4549871,9.84099159 28.6246927,9.47329607 28.7943984,9.10560054 L29.4944341,9.80563626 C29.0772411,10.7460883 28.5610531,11.7006824 27.9600124,12.6552766 L27.0761289,12.1249465 C27.3236163,11.7784642 27.5569615,11.4319819 27.7690935,11.0784285 L25.3012909,8.6106258 L24.5093313,9.40258539 L23.8658641,8.75911822 Z" id="形状" fill="#17BC94" fill-rule="nonzero"></path>
                </g>
            </g>
        </g>
    </g>
</svg>