<?xml version="1.0" standalone="no"?><!DOCTYPE svg PUBLIC "-//W3C//DTD SVG 1.1//EN" "http://www.w3.org/Graphics/SVG/1.1/DTD/svg11.dtd"><svg t="1647511800302" class="icon" viewBox="0 0 1024 1024" version="1.1" xmlns="http://www.w3.org/2000/svg" p-id="5578" xmlns:xlink="http://www.w3.org/1999/xlink" width="200" height="200"><defs><style type="text/css"></style></defs><path d="M406 685.2l-9 49c-0.6 3.2 2.6 5.6 5.4 4.4l46.2-18.6c0.6-0.2 1.2-0.6 1.6-1.2l345.4-423.8c1.4-1.8 1.2-4.2-0.6-5.6l-37.2-30.4c-1.8-1.4-4.2-1.2-5.6 0.6L406.8 683.4c-0.4 0.6-0.6 1.2-0.8 1.8zM815.8 270.2l25.6-31.6c9.4-12 7.6-29.4-4.4-39-11.8-9.6-29.2-8-39 3.6l-0.4 0.4-1.2 1.6-24.2 29.6 43.6 35.4z" fill="#4F4F4F" p-id="5579"></path><path d="M879.6 502.4c0-16-13.2-28.8-29.4-28-15 0.8-26.6 13.6-26.6 28.8v364.2H200.4V231.6H512v-0.4c15.6-0.4 28.2-13.6 27.2-29.6-0.8-15-13.8-26.4-28.8-26.4h-5.8c-1.4 0-2.8 0.2-4 0.4H184.4c-22 0-40 18-40 40v667.8c0 22 18 40 40 40h655.4c22 0 40-18 40-40V511v-8.6z" fill="#4F4F4F" p-id="5580"></path></svg>